<?xml version="1.0" encoding="UTF-8"?>
<svg xmlns="http://www.w3.org/2000/svg" viewBox="0 0 24 24" width="512" height="512">
  <path d="M9.172,17.657c-1.171,1.171-3.071,1.171-4.243,0-1.171-1.171-1.171-3.071,0-4.243l3.536-3.536c.779-.779,1.935-1.034,2.965-.656,.519,.19,1.093-.077,1.283-.596,.19-.518-.077-1.092-.596-1.282-1.76-.645-3.738-.208-5.066,1.12l-3.536,3.536c-1.953,1.953-1.953,5.119,0,7.071,1.953,1.953,5.119,1.953,7.071,0l3.182-3.182c.391-.391,.391-1.024,0-1.414s-1.024-.391-1.414,0l-3.182,3.182Z"/>
  <path d="M14.828,6.343c1.171-1.171,3.071-1.171,4.243,0,1.171,1.171,1.171,3.071,0,4.243l-3.536,3.536c-.779,.779-1.935,1.034-2.965,.656-.519-.19-1.093,.077-1.283,.596-.19,.518,.077,1.092,.596,1.282,1.76,.645,3.738,.208,5.066-1.12l3.536-3.536c1.953-1.953,1.953-5.119,0-7.071-1.953-1.953-5.119-1.953-7.071,0l-3.182,3.182c-.391,.391-.391,1.024,0,1.414s1.024,.391,1.414,0l3.182-3.182Z"/>
</svg>
